<svg width="560" height="180" viewBox="0 0 560 180" fill="none" xmlns="http://www.w3.org/2000/svg" role="img" aria-labelledby="title desc">
  <title id="title">EchoLingo project card</title>
  <desc id="desc">Mobile-first AI translation app with voice playback and conversation mode.</desc>
  <defs>
    <linearGradient id="bg" x1="0" y1="0" x2="560" y2="180" gradientUnits="userSpaceOnUse">
      <stop stop-color="#0F172A"/>
      <stop offset="0.55" stop-color="#1D4ED8"/>
      <stop offset="1" stop-color="#14B8A6"/>
    </linearGradient>
    <linearGradient id="line" x1="28" y1="146" x2="532" y2="146" gradientUnits="userSpaceOnUse">
      <stop stop-color="#38BDF8"/>
      <stop offset="1" stop-color="#2DD4BF"/>
    </linearGradient>
  </defs>
  <rect width="560" height="180" rx="18" fill="#020617"/>
  <rect width="560" height="180" rx="18" fill="url(#bg)" opacity="0.32"/>
  <circle cx="480" cy="18" r="96" fill="#38BDF8" opacity="0.12"/>
  <circle cx="96" cy="170" r="116" fill="#14B8A6" opacity="0.11"/>
  <rect x="28" y="28" width="58" height="58" rx="16" fill="#0F172A" opacity="0.82"/>
  <path d="M43 58C43 49.2 49.9 42 58.4 42C66.9 42 73.8 49.2 73.8 58C73.8 66.8 66.9 74 58.4 74C55.6 74 53 73.2 50.8 71.8L43 74L45.2 66C43.8 63.7 43 61 43 58Z" stroke="#38BDF8" stroke-width="4" stroke-linejoin="round"/>
  <text x="104" y="51" fill="#F8FAFC" font-family="Inter, Segoe UI, Arial, sans-serif" font-size="28" font-weight="800">EchoLingo</text>
  <text x="104" y="79" fill="#BAE6FD" font-family="Inter, Segoe UI, Arial, sans-serif" font-size="15" font-weight="600">AI translation, live conversation mode, voice playback</text>
  <text x="28" y="116" fill="#E5E7EB" font-family="Inter, Segoe UI, Arial, sans-serif" font-size="14">OpenAI translation, ElevenLabs speech, auth, history, and mobile-first UX.</text>
  <rect x="28" y="134" width="504" height="2" rx="1" fill="url(#line)"/>
  <rect x="28" y="149" width="68" height="22" rx="11" fill="#1E293B"/>
  <text x="42" y="165" fill="#E0F2FE" font-family="Inter, Segoe UI, Arial, sans-serif" font-size="12" font-weight="700">Next.js</text>
  <rect x="106" y="149" width="78" height="22" rx="11" fill="#1E293B"/>
  <text x="121" y="165" fill="#E0F2FE" font-family="Inter, Segoe UI, Arial, sans-serif" font-size="12" font-weight="700">TypeScript</text>
  <rect x="194" y="149" width="58" height="22" rx="11" fill="#1E293B"/>
  <text x="209" y="165" fill="#E0F2FE" font-family="Inter, Segoe UI, Arial, sans-serif" font-size="12" font-weight="700">Prisma</text>
  <rect x="262" y="149" width="62" height="22" rx="11" fill="#1E293B"/>
  <text x="276" y="165" fill="#E0F2FE" font-family="Inter, Segoe UI, Arial, sans-serif" font-size="12" font-weight="700">OpenAI</text>
</svg>
