<svg width="560" height="180" viewBox="0 0 560 180" fill="none" xmlns="http://www.w3.org/2000/svg" role="img" aria-labelledby="title desc">
  <title id="title">VETPET project card</title>
  <desc id="desc">Responsive veterinary clinic website built with React, Vite, and animation libraries.</desc>
  <defs>
    <linearGradient id="bg" x1="0" y1="0" x2="560" y2="180" gradientUnits="userSpaceOnUse">
      <stop stop-color="#052E2B"/>
      <stop offset="0.52" stop-color="#16A34A"/>
      <stop offset="1" stop-color="#FACC15"/>
    </linearGradient>
    <linearGradient id="line" x1="28" y1="146" x2="532" y2="146" gradientUnits="userSpaceOnUse">
      <stop stop-color="#4ADE80"/>
      <stop offset="1" stop-color="#FDE047"/>
    </linearGradient>
  </defs>
  <rect width="560" height="180" rx="18" fill="#020617"/>
  <rect width="560" height="180" rx="18" fill="url(#bg)" opacity="0.31"/>
  <circle cx="430" cy="34" r="94" fill="#FDE047" opacity="0.11"/>
  <circle cx="106" cy="160" r="94" fill="#22C55E" opacity="0.12"/>
  <rect x="28" y="28" width="58" height="58" rx="16" fill="#0F172A" opacity="0.82"/>
  <path d="M57 44C50 52 46 59 46 66C46 72 51 76 57 76C63 76 68 72 68 66C68 59 64 52 57 44Z" stroke="#BBF7D0" stroke-width="4" stroke-linejoin="round"/>
  <path d="M46 62H68" stroke="#FDE047" stroke-width="4" stroke-linecap="round"/>
  <text x="104" y="51" fill="#F8FAFC" font-family="Inter, Segoe UI, Arial, sans-serif" font-size="28" font-weight="800">VETPET</text>
  <text x="104" y="79" fill="#DCFCE7" font-family="Inter, Segoe UI, Arial, sans-serif" font-size="15" font-weight="600">Responsive website for a real veterinary clinic</text>
  <text x="28" y="116" fill="#E5E7EB" font-family="Inter, Segoe UI, Arial, sans-serif" font-size="14">Single-page React experience with motion, service sections, and local-business polish.</text>
  <rect x="28" y="134" width="504" height="2" rx="1" fill="url(#line)"/>
  <rect x="28" y="149" width="58" height="22" rx="11" fill="#1E293B"/>
  <text x="43" y="165" fill="#ECFCCB" font-family="Inter, Segoe UI, Arial, sans-serif" font-size="12" font-weight="700">React</text>
  <rect x="96" y="149" width="48" height="22" rx="11" fill="#1E293B"/>
  <text x="112" y="165" fill="#ECFCCB" font-family="Inter, Segoe UI, Arial, sans-serif" font-size="12" font-weight="700">Vite</text>
  <rect x="154" y="149" width="72" height="22" rx="11" fill="#1E293B"/>
  <text x="168" y="165" fill="#ECFCCB" font-family="Inter, Segoe UI, Arial, sans-serif" font-size="12" font-weight="700">Tailwind</text>
  <rect x="236" y="149" width="104" height="22" rx="11" fill="#1E293B"/>
  <text x="251" y="165" fill="#ECFCCB" font-family="Inter, Segoe UI, Arial, sans-serif" font-size="12" font-weight="700">Framer Motion</text>
</svg>
