<svg width="560" height="180" viewBox="0 0 560 180" fill="none" xmlns="http://www.w3.org/2000/svg" role="img" aria-labelledby="title desc">
  <title id="title">WebDrop project card</title>
  <desc id="desc">Browser-to-browser file transfer app with WebRTC and Socket.IO.</desc>
  <defs>
    <linearGradient id="bg" x1="0" y1="0" x2="560" y2="180" gradientUnits="userSpaceOnUse">
      <stop stop-color="#111827"/>
      <stop offset="0.45" stop-color="#7C3AED"/>
      <stop offset="1" stop-color="#06B6D4"/>
    </linearGradient>
    <linearGradient id="line" x1="28" y1="146" x2="532" y2="146" gradientUnits="userSpaceOnUse">
      <stop stop-color="#A78BFA"/>
      <stop offset="1" stop-color="#22D3EE"/>
    </linearGradient>
  </defs>
  <rect width="560" height="180" rx="18" fill="#020617"/>
  <rect width="560" height="180" rx="18" fill="url(#bg)" opacity="0.34"/>
  <path d="M432 24H536V128H432V24Z" fill="#22D3EE" opacity="0.08"/>
  <path d="M34 142C114 94 160 112 220 132C286 154 366 166 522 112" stroke="#A78BFA" stroke-width="18" stroke-linecap="round" opacity="0.12"/>
  <rect x="28" y="28" width="58" height="58" rx="16" fill="#0F172A" opacity="0.82"/>
  <path d="M43 58H73M58 43V73M46 46L70 70M70 46L46 70" stroke="#22D3EE" stroke-width="4" stroke-linecap="round"/>
  <text x="104" y="51" fill="#F8FAFC" font-family="Inter, Segoe UI, Arial, sans-serif" font-size="28" font-weight="800">WebDrop</text>
  <text x="104" y="79" fill="#E9D5FF" font-family="Inter, Segoe UI, Arial, sans-serif" font-size="15" font-weight="600">AirDrop-style browser file transfer MVP</text>
  <text x="28" y="116" fill="#E5E7EB" font-family="Inter, Segoe UI, Arial, sans-serif" font-size="14">Nearby discovery, transfer requests, WebRTC data channels, no file relay.</text>
  <rect x="28" y="134" width="504" height="2" rx="1" fill="url(#line)"/>
  <rect x="28" y="149" width="68" height="22" rx="11" fill="#1E293B"/>
  <text x="42" y="165" fill="#F3E8FF" font-family="Inter, Segoe UI, Arial, sans-serif" font-size="12" font-weight="700">Next.js</text>
  <rect x="106" y="149" width="78" height="22" rx="11" fill="#1E293B"/>
  <text x="121" y="165" fill="#F3E8FF" font-family="Inter, Segoe UI, Arial, sans-serif" font-size="12" font-weight="700">TypeScript</text>
  <rect x="194" y="149" width="76" height="22" rx="11" fill="#1E293B"/>
  <text x="208" y="165" fill="#F3E8FF" font-family="Inter, Segoe UI, Arial, sans-serif" font-size="12" font-weight="700">Socket.IO</text>
  <rect x="280" y="149" width="64" height="22" rx="11" fill="#1E293B"/>
  <text x="295" y="165" fill="#F3E8FF" font-family="Inter, Segoe UI, Arial, sans-serif" font-size="12" font-weight="700">WebRTC</text>
</svg>
